<?xml version="1.0" encoding="utf-8"?>
<!-- Generator: Adobe Illustrator 13.0.2, SVG Export Plug-In  -->
<!DOCTYPE svg PUBLIC "-//W3C//DTD SVG 1.1 Tiny//EN" "http://www.w3.org/Graphics/SVG/1.1/DTD/svg11-tiny.dtd" [
	<!ENTITY ns_flows "http://ns.adobe.com/Flows/1.0/">
]>
<svg version="1.1" baseProfile="tiny"
	 xmlns="http://www.w3.org/2000/svg" xmlns:xlink="http://www.w3.org/1999/xlink" xmlns:a="http://ns.adobe.com/AdobeSVGViewerExtensions/3.0/"
	 x="0px" y="0px" width="176px" height="93px" viewBox="-0.0419922 -0.7373047 176 93" xml:space="preserve">
<defs>
</defs>
<path fill="#333333" d="M20.065918,26.71875v39.0185547c0,4.0673828,0.925293,5.8300781-8.6914063,5.8300781v7.2119141h38.7402344
	v-7.2119141c-10.7250977,0-10.0732422-0.8398438-10.0732422-5.7324219V53.0712891
	c2.3999023,0.0927734,4.8999023,0.0927734,8.4130859,0c18.4912109-0.8300781,28.3862305-4.9902344,28.3862305-20.8007813
	c0-13.4130859-6.5649414-17.6611328-23.1152344-17.8466797c-11.3745117-0.0927734-36.1547852,0.3710938-42.8149414,0v7.2119141
	C20.8959961,21.6357422,20.065918,22.8369141,20.065918,26.71875z M40.0415039,22.0996094h3.2299805
	c9.7143555,0,12.2998047,3.4179688,12.2998047,10.3466797c0,8.6035156-4.6264648,13.7841797-15.5297852,13.5058594V22.0996094z"/>
<path fill="#333333" d="M121.6845703,79.4238281c3.6035156,0,6.7480469,0,10.6298828-0.6445313
	c7.1240234-1.015625,14.7949219-3.1445313,23.4912109-3.1445313l0.2685547-15.9960938
	c0-1.7578125-0.8300781-5.4589844,8.046875-5.4589844v-6.9335938c-5.2685547,0.4638672-11.4697266,0.3662109-17.5634766,0.3662109
	c-6.5722656,0-12.8564453,0.0976563-23.0224609-0.0878906v6.5625c14.2333984-0.0927734,13.125,0.8300781,13.2177734,5.5517578
	c0.0927734,7.578125,0.0927734,8.59375-0.7421875,9.1503906c-2.1289063,2.3095703-8.4082031,3.2373047-11.7382813,3.2373047
	c-17.0117188,0-20.2539063-13.4082031-20.2539063-24.3164063c0-12.8564453,1.8505859-27.1826172,21.4550781-27.1826172
	c14.0527344,0,15.3515625,2.6757813,17.6611328,13.4033203l11.0888672,0.4638672l-0.3710938-18.3056641
	c-11.0839844-1.4794922-18.3984375-2.7734375-28.3789063-2.7734375c-30.6054688,0-42.4389648,10.1660156-42.4389648,34.2089844
	C83.034668,68.3300781,94.9609375,79.4238281,121.6845703,79.4238281z"/>
<path fill="#333333" d="M175.2148438,0H0v92.0898438h175.2148438V0z M170.5957031,87.4658203H4.6264648V4.6191406h165.9692383
	V87.4658203z"/>
</svg>
