<?xml version="1.0" encoding="utf-8"?>
<!-- Generator: Adobe Illustrator 13.0.2, SVG Export Plug-In  -->
<!DOCTYPE svg PUBLIC "-//W3C//DTD SVG 1.1 Tiny//EN" "http://www.w3.org/Graphics/SVG/1.1/DTD/svg11-tiny.dtd" [
	<!ENTITY ns_flows "http://ns.adobe.com/Flows/1.0/">
]>
<svg version="1.1" baseProfile="tiny"
	 xmlns="http://www.w3.org/2000/svg" xmlns:xlink="http://www.w3.org/1999/xlink" xmlns:a="http://ns.adobe.com/AdobeSVGViewerExtensions/3.0/"
	 x="0px" y="0px" width="333px" height="94px" viewBox="-0.543457 -0.6337891 333 94" xml:space="preserve">
<defs>
</defs>
<path fill="#333333" d="M284.5385742,71.8017578c-7.5439453,0-6.4941406-6.8408203-6.9628906-8.3496094
	c-0.234375-3.7158203-0.9228516-4.7558594-5.7910156-4.7558594h-5.4589844c-5.4492188,0-5.5664063,3.2421875-5.5664063,5.5615234
	c0.1171875,12.3046875,12.9980469,14.6191406,25.7519531,14.6191406c14.609375,0,25.7421875-4.9853516,25.7421875-17.7490234
	c0-7.7685547-2.7685547-11.5966797-9.8486328-14.1503906c6.6162109-2.6660156,8.5839844-7.421875,8.5839844-11.9482422
	c0-8.7011719-6.6162109-15.6591797-26.9140625-15.6591797c-14.5019531,0-21.3427734,4.8681641-22.1630859,14.0332031
	c-0.6884766,2.9003906,1.171875,5.1074219,4.8779297,5.1074219l5.6884766-0.1171875
	c2.3242188,0.3466797,6.3720703-1.7333984,5.9082031-5.0976563c0-2.7929688,0.4638672-6.6162109,6.2597656-6.6162109
	c5.1123047,0,6.5087891,2.6660156,6.5087891,7.0800781c0,6.6064453-2.4365234,10.0830078-8.3642578,9.9707031l-8.5742188-0.1220703
	v7.7832031l8.5742188-0.46875c7.3193359-0.3466797,9.4042969,4.5166016,9.4042969,9.5068359
	C292.1948242,65.4248047,291.8432617,71.8017578,284.5385742,71.8017578z"/>
<path fill="#333333" d="M228.9819336,65.8886719c0,3.359375-2.3291016,4.0527344-3.5986328,4.4042969
	c-2.3193359,0.6982422-9.3994141,1.3964844-12.4169922,1.1621094v6.953125c9.2822266-0.1123047,16.3623047,0,23.3203125,0
	c6.8310547,0,13.9160156-0.1123047,22.96875,0v-7.1826172c-11.1376953,0-12.3046875-0.5859375-12.3046875-5.2246094V20.4150391
	h-15.078125c-5.0976563,4.7558594-11.484375,8.3496094-21.1132813,10.6738281v8.8476563
	c2.8564453-1.7211914,14.6679688-5.9228516,18.2226563-7.9248047V65.8886719z"/>
<rect x="178.2885742" y="47.2070313" fill="#333333" width="30.0390625" height="13.9160156"/>
<path fill="#333333" d="M125.9741211,79.2236328c3.7158203,0,6.730957-0.1171875,10.559082-0.6933594
	c6.9555664-0.9277344,14.6166992-3.1347656,23.2006836-3.1347656l0.2246094-15.7714844
	c0-1.7382813-0.8105469-5.3369141,7.890625-5.3369141v-6.8457031c-5.1049805,0.4638672-11.1352539,0.2294922-17.2802734,0.2294922
	c-6.5039063,0-12.644043,0.234375-22.8540039-0.1123047v6.6113281c14.152832-0.1171875,12.9882813,0.6933594,13.1030273,5.4541016
	c0.1220703,7.6513672,0.1220703,8.4667969-0.5737305,9.1601563c-2.2045898,2.2070313-8.3544922,3.1347656-11.5991211,3.1347656
	c-16.8261719,0-20.065918-13.2226563-20.065918-24.0136719c0-12.6416016,1.8554688-26.796875,21.340332-26.796875
	c13.684082,0,14.9633789,2.5585938,17.1655273,13.1103516l11.1328125,0.4736328l-0.4541016-17.9931641
	c-11.0253906-1.5039063-18.2202148-2.7783203-27.8442383-2.7783203c-30.5102539,0-42.2216797,9.8535156-42.2216797,33.6376953
	C87.6977539,68.203125,99.5239258,79.2236328,125.9741211,79.2236328z"/>
<path fill="#333333" d="M332.2143555,0H0v92.7929688h332.2143555V0z M327.4584961,88.0419922H4.6484375V4.6386719h322.8100586
	V88.0419922z"/>
<path fill="#333333" d="M27.9589844,27.1386719v38.6328125c0,3.9404297,0.8154297,5.5615234-8.7011719,5.5615234v7.1972656
	h38.3959961v-7.1972656c-10.5541992,0-10.090332-0.6933594-10.090332-5.4443359V53.125
	c2.4365234,0.1171875,4.8706055,0.1171875,8.3544922,0c18.3203125-0.6933594,28.0664063-4.8681641,28.0664063-20.6494141
	c0-13.2226563-6.496582-17.2802734-22.734375-17.3974609c-11.3671875-0.1123047-35.8422852,0.3515625-42.4560547,0v6.9628906
	C28.6547852,22.0410156,27.9589844,23.3154297,27.9589844,27.1386719z M47.5634766,23.7744141h3.1298828
	c9.7412109,0,12.2949219,3.3642578,12.2949219,10.0976563c0,8.5888672-4.5239258,13.6865234-15.4248047,13.4521484V23.7744141z"/>
</svg>
